<?xml version="1.0" encoding="UTF-8"?>
<!DOCTYPE svg PUBLIC "-//W3C//DTD SVG 1.1//EN" "http://www.w3.org/Graphics/SVG/1.1/DTD/svg11.dtd">
<svg xmlns="http://www.w3.org/2000/svg" version="1.1" width="225px" height="225px" style="shape-rendering:geometricPrecision; text-rendering:geometricPrecision; image-rendering:optimizeQuality; fill-rule:evenodd; clip-rule:evenodd" xmlns:xlink="http://www.w3.org/1999/xlink">
<g><path style="opacity:1" fill="#f5f5f5" d="M -0.5,-0.5 C 74.5,-0.5 149.5,-0.5 224.5,-0.5C 224.5,64.8333 224.5,130.167 224.5,195.5C 223.527,195.013 222.527,194.513 221.5,194C 216.5,193.667 211.5,193.333 206.5,193C 206,192.5 205.5,192 205,191.5C 203.406,193.297 201.406,194.297 199,194.5C 193.241,193.144 187.407,192.144 181.5,191.5C 182.423,189.076 183.923,187.076 186,185.5C 186.494,183.866 186.66,182.199 186.5,180.5C 181.639,180.43 177.639,182.263 174.5,186C 175.167,186.333 175.833,186.667 176.5,187C 173.977,187.518 171.977,188.852 170.5,191C 143.364,187.85 121.198,175.683 104,154.5C 92.1655,140.679 85.1655,124.679 83,106.5C 81.4311,93.3692 80.2645,80.2025 79.5,67C 79.3066,63.7574 79.9733,60.7574 81.5,58C 83.1667,57.3333 84.8333,57.3333 86.5,58C 90.0081,59.6694 93.6748,60.836 97.5,61.5C 102.345,60.497 102.678,58.3304 98.5,55C 93.7117,52.2707 88.7117,50.104 83.5,48.5C 83.1583,47.6618 82.4916,47.3284 81.5,47.5C 80.1266,47.6567 78.7932,47.49 77.5,47C 73.9422,44.0538 69.9422,41.8871 65.5,40.5C 64.9682,38.2589 63.6349,36.7589 61.5,36C 57.853,35.2255 54.1864,34.5588 50.5,34C 49.5,33 48.5,32 47.5,31C 49.013,28.5459 48.3463,26.8793 45.5,26C 41.8333,25.6667 38.1667,25.3333 34.5,25C 34.1333,21.5931 33.9666,18.0931 34,14.5C 33.1841,13.1772 32.0174,12.5106 30.5,12.5C 28.8333,11.1667 27.1667,11.1667 25.5,12.5C 22.746,14.0528 21.9126,16.3861 23,19.5C 26.2331,21.3545 27.5664,24.0212 27,27.5C 24.1726,29.4945 21.6726,31.8278 19.5,34.5C 21.3952,36.8671 21.8952,39.5337 21,42.5C 16.8381,44.4785 12.8381,46.8119 9,49.5C 8.09024,51.9449 8.92357,53.2782 11.5,53.5C 11.5,53.8333 11.5,54.1667 11.5,54.5C 6.19596,56.8065 2.19596,60.4731 -0.5,65.5C -0.5,43.5 -0.5,21.5 -0.5,-0.5 Z"/></g>
<g><path style="opacity:1" fill="#787878" d="M 25.5,12.5 C 27.1667,11.1667 28.8333,11.1667 30.5,12.5C 30.5,12.8333 30.5,13.1667 30.5,13.5C 29.1667,13.5 27.8333,13.5 26.5,13.5C 26.5,12.8333 26.1667,12.5 25.5,12.5 Z"/></g>
<g><path style="opacity:1" fill="#0d0d0d" d="M 25.5,12.5 C 26.1667,12.5 26.5,12.8333 26.5,13.5C 24.5589,15.0106 24.0589,17.0106 25,19.5C 27.1062,17.709 29.6062,17.0423 32.5,17.5C 32.7709,15.6203 32.1042,14.287 30.5,13.5C 30.5,13.1667 30.5,12.8333 30.5,12.5C 32.0174,12.5106 33.1841,13.1772 34,14.5C 33.9666,18.0931 34.1333,21.5931 34.5,25C 38.1667,25.3333 41.8333,25.6667 45.5,26C 48.3463,26.8793 49.013,28.5459 47.5,31C 48.5,32 49.5,33 50.5,34C 54.1864,34.5588 57.853,35.2255 61.5,36C 63.6349,36.7589 64.9682,38.2589 65.5,40.5C 69.9422,41.8871 73.9422,44.0538 77.5,47C 78.7932,47.49 80.1266,47.6567 81.5,47.5C 74.4252,47.9944 67.4252,48.9944 60.5,50.5C 57.7938,50.5751 55.1272,50.9084 52.5,51.5C 42.6348,54.8017 32.6348,57.8017 22.5,60.5C 23.09,61.7989 24.09,62.6322 25.5,63C 24.273,64.5874 24.6063,65.9207 26.5,67C 20.984,68.9246 17.6507,67.0913 16.5,61.5C 13.4899,62.2692 10.4899,63.1026 7.5,64C 2.35658,67.9286 2.18991,72.0953 7,76.5C 7.06552,72.7665 7.89886,69.2665 9.5,66C 11.1667,65.3333 12.8333,65.3333 14.5,66C 11.2113,67.0767 10.7113,68.91 13,71.5C 15.2276,73.1134 17.7276,73.78 20.5,73.5C 20.5,72.5 20.5,71.5 20.5,70.5C 23.5716,70.1875 26.405,70.8542 29,72.5C 34.1968,70.1522 39.3635,67.6522 44.5,65C 55.8399,64.7617 66.8399,62.7617 77.5,59C 82.3157,57.1177 83.9823,53.9511 82.5,49.5C 82.5,48.8333 82.8333,48.5 83.5,48.5C 88.7117,50.104 93.7117,52.2707 98.5,55C 102.678,58.3304 102.345,60.497 97.5,61.5C 93.6748,60.836 90.0081,59.6694 86.5,58C 84.8333,57.3333 83.1667,57.3333 81.5,58C 79.9733,60.7574 79.3066,63.7574 79.5,67C 80.2645,80.2025 81.4311,93.3692 83,106.5C 85.1655,124.679 92.1655,140.679 104,154.5C 121.198,175.683 143.364,187.85 170.5,191C 171.977,188.852 173.977,187.518 176.5,187C 175.833,186.667 175.167,186.333 174.5,186C 177.639,182.263 181.639,180.43 186.5,180.5C 186.66,182.199 186.494,183.866 186,185.5C 183.923,187.076 182.423,189.076 181.5,191.5C 187.407,192.144 193.241,193.144 199,194.5C 201.406,194.297 203.406,193.297 205,191.5C 205.5,192 206,192.5 206.5,193C 211.5,193.333 216.5,193.667 221.5,194C 222.527,194.513 223.527,195.013 224.5,195.5C 224.5,196.5 224.5,197.5 224.5,198.5C 223.733,199.172 223.066,200.005 222.5,201C 216.335,201.833 210.501,203.666 205,206.5C 201.927,205.383 198.76,205.216 195.5,206C 158.329,215.708 121.663,214.042 85.5,201C 71.9317,194.261 59.5984,185.761 48.5,175.5C 31.5929,155.36 19.0929,132.693 11,107.5C 8.84464,94.5169 5.01131,82.1836 -0.5,70.5C -0.5,68.8333 -0.5,67.1667 -0.5,65.5C 2.19596,60.4731 6.19596,56.8065 11.5,54.5C 14.0163,54.2447 16.3496,53.4114 18.5,52C 16.0784,51.8648 13.7451,52.3648 11.5,53.5C 8.92357,53.2782 8.09024,51.9449 9,49.5C 12.8381,46.8119 16.8381,44.4785 21,42.5C 21.8952,39.5337 21.3952,36.8671 19.5,34.5C 21.6726,31.8278 24.1726,29.4945 27,27.5C 27.5664,24.0212 26.2331,21.3545 23,19.5C 21.9126,16.3861 22.746,14.0528 25.5,12.5 Z"/></g>
<g><path style="opacity:1" fill="#dfdfdf" d="M 26.5,13.5 C 27.8333,13.5 29.1667,13.5 30.5,13.5C 32.1042,14.287 32.7709,15.6203 32.5,17.5C 29.6062,17.0423 27.1062,17.709 25,19.5C 24.0589,17.0106 24.5589,15.0106 26.5,13.5 Z"/></g>
<g><path style="opacity:1" fill="#9e9e9e" d="M 37.5,27.5 C 38.9778,27.238 40.3112,27.5713 41.5,28.5C 39.9255,29.6309 38.2588,29.7975 36.5,29C 37.056,28.6174 37.3893,28.1174 37.5,27.5 Z"/></g>
<g><path style="opacity:1" fill="#e2e2e2" d="M 39.5,39.5 C 38.962,37.8828 38.6287,36.2161 38.5,34.5C 42.3311,34.2491 45.6644,35.4157 48.5,38C 46.8934,39.049 46.2267,40.549 46.5,42.5C 43.7939,42.3122 41.4605,41.3122 39.5,39.5 Z"/></g>
<g><path style="opacity:1" fill="#c2c2c2" d="M 39.5,39.5 C 39.5299,40.4972 39.0299,41.1639 38,41.5C 34.8601,40.7446 31.6934,40.5779 28.5,41C 31.9875,38.7048 35.6542,38.2048 39.5,39.5 Z"/></g>
<g><path style="opacity:1" fill="#dbdbdb" d="M 52.5,51.5 C 51.448,51.6495 50.448,51.4828 49.5,51C 48.2744,49.3651 46.941,47.8651 45.5,46.5C 44.7492,47.376 44.2492,48.376 44,49.5C 37.8082,47.1126 31.6415,47.4459 25.5,50.5C 25.1667,50.1667 24.8333,49.8333 24.5,49.5C 33.7295,46.5254 43.0629,43.8588 52.5,41.5C 53.5,41.8333 54.5,42.1667 55.5,42.5C 54.6527,44.061 54.9861,45.561 56.5,47C 55.5509,47.6172 54.7175,47.4506 54,46.5C 53.6481,48.2475 53.1481,49.9142 52.5,51.5 Z"/></g>
<g><path style="opacity:1" fill="#9e9e9e" d="M 81.5,47.5 C 82.4916,47.3284 83.1583,47.6618 83.5,48.5C 82.8333,48.5 82.5,48.8333 82.5,49.5C 76.9738,49.1786 71.6405,49.5119 66.5,50.5C 65.391,50.5569 64.391,50.8902 63.5,51.5C 62.791,50.596 61.791,50.2627 60.5,50.5C 67.4252,48.9944 74.4252,47.9944 81.5,47.5 Z"/></g>
<g><path style="opacity:1" fill="#818181" d="M 11.5,54.5 C 11.5,54.1667 11.5,53.8333 11.5,53.5C 13.7451,52.3648 16.0784,51.8648 18.5,52C 16.3496,53.4114 14.0163,54.2447 11.5,54.5 Z"/></g>
<g><path style="opacity:1" fill="#e2e2e2" d="M 94.5,56.5 C 97.3797,55.1947 98.8797,56.1947 99,59.5C 97.7292,58.1175 96.2292,57.1175 94.5,56.5 Z"/></g>
<g><path style="opacity:1" fill="#e7e7e7" d="M 66.5,50.5 C 71.6405,49.5119 76.9738,49.1786 82.5,49.5C 83.9823,53.9511 82.3157,57.1177 77.5,59C 66.8399,62.7617 55.8399,64.7617 44.5,65C 39.3635,67.6522 34.1968,70.1522 29,72.5C 26.405,70.8542 23.5716,70.1875 20.5,70.5C 20.5,71.5 20.5,72.5 20.5,73.5C 17.7276,73.78 15.2276,73.1134 13,71.5C 10.7113,68.91 11.2113,67.0767 14.5,66C 12.8333,65.3333 11.1667,65.3333 9.5,66C 7.89886,69.2665 7.06552,72.7665 7,76.5C 2.18991,72.0953 2.35658,67.9286 7.5,64C 10.4899,63.1026 13.4899,62.2692 16.5,61.5C 17.6507,67.0913 20.984,68.9246 26.5,67C 24.6063,65.9207 24.273,64.5874 25.5,63C 24.09,62.6322 23.09,61.7989 22.5,60.5C 32.6348,57.8017 42.6348,54.8017 52.5,51.5C 55.1272,50.9084 57.7938,50.5751 60.5,50.5C 61.791,50.2627 62.791,50.596 63.5,51.5C 63.5,52.5 63.5,53.5 63.5,54.5C 68.2355,54.9908 69.2355,53.6574 66.5,50.5 Z"/></g>
<g><path style="opacity:1" fill="#131313" d="M 32.5,62.5 C 34.9124,62.244 36.5791,63.244 37.5,65.5C 36.635,66.5827 35.635,66.7494 34.5,66C 33.6721,65.0853 32.6721,64.4186 31.5,64C 32.056,63.6174 32.3893,63.1174 32.5,62.5 Z"/></g>
<g><path style="opacity:1" fill="#1b1b1b" d="M 35.5,59.5 C 37.1033,59.3118 38.4366,59.8118 39.5,61C 37.5372,61.8442 36.2039,61.3442 35.5,59.5 Z"/></g>
<g><path style="opacity:1" fill="#171717" d="M 44.5,55.5 C 57.735,55.5142 57.735,56.1809 44.5,57.5C 43.537,57.0302 43.537,56.3635 44.5,55.5 Z"/></g>
<g><path style="opacity:1" fill="#555555" d="M 70.5,51.5 C 73.7973,51.3287 74.1306,51.9954 71.5,53.5C 70.7025,53.0431 70.3691,52.3764 70.5,51.5 Z"/></g>
<g><path style="opacity:1" fill="#191919" d="M 66.5,50.5 C 69.2355,53.6574 68.2355,54.9908 63.5,54.5C 63.5,53.5 63.5,52.5 63.5,51.5C 64.391,50.8902 65.391,50.5569 66.5,50.5 Z"/></g>
<g><path style="opacity:1" fill="#151515" d="M 74.5,73.5 C 73.833,75.8194 73.6664,78.1527 74,80.5C 74.3333,79.8333 74.6667,79.1667 75,78.5C 75.3988,78.7284 75.5654,79.0618 75.5,79.5C 75.4754,82.179 74.142,83.5123 71.5,83.5C 71.3354,80.4816 71.502,77.4816 72,74.5C 72.8382,73.001 73.6715,72.6676 74.5,73.5 Z"/></g>
<g><path style="opacity:1" fill="#f0f0f0" d="M 77.5,65.5 C 77.8174,68.5719 77.4841,71.5719 76.5,74.5C 75.8165,74.1373 75.1499,73.8039 74.5,73.5C 73.6715,72.6676 72.8382,73.001 72,74.5C 71.502,77.4816 71.3354,80.4816 71.5,83.5C 74.142,83.5123 75.4754,82.179 75.5,79.5C 75.8333,79.5 76.1667,79.5 76.5,79.5C 79.6395,84.0692 80.3061,89.0692 78.5,94.5C 78.814,98.5352 79.814,102.369 81.5,106C 79.8845,107.637 78.5512,109.471 77.5,111.5C 77.6667,112.167 77.8333,112.833 78,113.5C 79.1915,109.178 80.5248,108.845 82,112.5C 83.8543,119.948 86.021,127.281 88.5,134.5C 87.5,135.833 86.5,137.167 85.5,138.5C 89.7563,141.674 93.923,145.007 98,148.5C 101.098,154.363 104.931,159.696 109.5,164.5C 111.937,171.438 116.604,176.271 123.5,179C 126.774,180.202 130.107,181.202 133.5,182C 136.256,185.427 139.59,188.093 143.5,190C 149.861,191.977 156.194,194.144 162.5,196.5C 161.312,197.84 159.812,198.507 158,198.5C 148.945,196.037 139.945,193.371 131,190.5C 128.272,190.557 125.939,191.557 124,193.5C 123.667,192.833 123.333,192.167 123,191.5C 119.833,195.528 117.333,195.028 115.5,190C 108.185,190.118 106.185,187.451 109.5,182C 104.771,181.727 100.104,181.061 95.5,180C 93.393,178.736 92.393,176.903 92.5,174.5C 94.5643,174.687 96.5643,175.187 98.5,176C 97.1667,177 97.1667,178 98.5,179C 101.167,179.667 103.833,179.667 106.5,179C 103.5,176 100.5,173 97.5,170C 87.6451,165.24 77.9784,160.24 68.5,155C 69.5,154.333 70.5,154.333 71.5,155C 74.2263,157.03 77.2263,158.53 80.5,159.5C 82.0004,159.547 83.0004,158.881 83.5,157.5C 82.1471,152.312 78.8138,149.479 73.5,149C 72.1667,147.667 70.8333,146.333 69.5,145C 71.8132,144.359 73.4798,143.026 74.5,141C 73.0727,137.743 71.0727,134.91 68.5,132.5C 68.0472,131.542 67.3805,130.708 66.5,130C 67.0509,128.602 67.3842,127.268 67.5,126C 64.1832,125.502 60.8499,125.335 57.5,125.5C 57.1872,121.958 57.5206,118.625 58.5,115.5C 59.3909,114.739 60.0576,113.739 60.5,112.5C 59.1565,110.471 57.8231,108.471 56.5,106.5C 57.4137,103.272 57.7471,99.9387 57.5,96.5C 54.7628,96.5987 52.0961,96.2653 49.5,95.5C 49.1667,94.8333 48.8333,94.1667 48.5,93.5C 49.5417,92.2089 50.7083,92.2089 52,93.5C 51.7478,91.7191 51.5811,90.0524 51.5,88.5C 50.5218,86.4685 49.0218,84.8018 47,83.5C 46.5357,84.0944 46.369,84.7611 46.5,85.5C 43.8333,86.8333 41.1667,86.8333 38.5,85.5C 37.2626,82.8381 36.4293,80.1715 36,77.5C 39.5982,76.912 43.0982,75.912 46.5,74.5C 47.3857,73.675 47.719,72.675 47.5,71.5C 50.5959,72.0934 52.9292,71.0934 54.5,68.5C 56.4325,69.5202 58.4325,69.6869 60.5,69C 59.1854,67.6054 59.5188,66.6054 61.5,66C 65.8346,65.1665 70.168,64.3332 74.5,63.5C 76.0377,63.4534 77.0377,64.1201 77.5,65.5 Z"/></g>
<g><path style="opacity:1" fill="#b4b4b4" d="M 77.5,65.5 C 78.1611,67.134 78.4944,68.9674 78.5,71C 78.6397,74.1498 77.973,76.9831 76.5,79.5C 76.1667,79.5 75.8333,79.5 75.5,79.5C 75.5654,79.0618 75.3988,78.7284 75,78.5C 74.6667,79.1667 74.3333,79.8333 74,80.5C 73.6664,78.1527 73.833,75.8194 74.5,73.5C 75.1499,73.8039 75.8165,74.1373 76.5,74.5C 77.4841,71.5719 77.8174,68.5719 77.5,65.5 Z"/></g>
<g><path style="opacity:1" fill="#6e6e6e" d="M 32.5,79.5 C 30.901,79.2322 29.5676,79.5655 28.5,80.5C 27.6236,80.6309 26.9569,80.2975 26.5,79.5C 28.6365,78.2072 30.6365,78.2072 32.5,79.5 Z"/></g>
<g><path style="opacity:1" fill="#d1d1d1" d="M 28.5,80.5 C 29.5676,79.5655 30.901,79.2322 32.5,79.5C 34.6516,80.0768 34.985,81.2435 33.5,83C 31.7412,83.7975 30.0745,83.6309 28.5,82.5C 30.9248,81.3507 30.9248,80.684 28.5,80.5 Z"/></g>
<g><path style="opacity:1" fill="#bfbfbf" d="M 19.5,81.5 C 20.9778,81.238 22.3112,81.5713 23.5,82.5C 21.5365,85.1939 20.2032,84.8606 19.5,81.5 Z"/></g>
<g><path style="opacity:1" fill="#181818" d="M 51.5,88.5 C 51.1034,89.525 50.4368,89.6917 49.5,89C 47.9371,88.2411 46.9371,87.0744 46.5,85.5C 46.369,84.7611 46.5357,84.0944 47,83.5C 49.0218,84.8018 50.5218,86.4685 51.5,88.5 Z"/></g>
<g><path style="opacity:1" fill="#181818" d="M 48.5,93.5 C 48.8333,94.1667 49.1667,94.8333 49.5,95.5C 46.495,95.747 43.995,94.747 42,92.5C 41.3123,91.6683 41.479,91.0016 42.5,90.5C 44.5266,91.5133 46.5266,92.5133 48.5,93.5 Z"/></g>
<g><path style="opacity:1" fill="#d4d4d4" d="M 19.5,92.5 C 20.7082,91.218 22.0416,91.218 23.5,92.5C 22.3002,93.2916 20.9669,93.2916 19.5,92.5 Z"/></g>
<g><path style="opacity:1" fill="#d3d3d3" d="M 12.5,94.5 C 14.2252,94.8425 14.7252,95.8425 14,97.5C 12.9614,96.7562 12.4614,95.7562 12.5,94.5 Z"/></g>
<g><path style="opacity:1" fill="#b3b3b3" d="M 19.5,94.5 C 22.462,94.1167 23.462,95.1167 22.5,97.5C 20.7869,97.1207 19.7869,96.1207 19.5,94.5 Z"/></g>
<g><path style="opacity:1" fill="#151515" d="M 68.5,101.5 C 71.5326,105.362 72.5326,109.695 71.5,114.5C 67.6459,110.883 66.6459,106.55 68.5,101.5 Z"/></g>
<g><path style="opacity:1" fill="#e5e5e5" d="M 38.5,85.5 C 41.1667,86.8333 43.8333,86.8333 46.5,85.5C 46.9371,87.0744 47.9371,88.2411 49.5,89C 50.4368,89.6917 51.1034,89.525 51.5,88.5C 51.5811,90.0524 51.7478,91.7191 52,93.5C 50.7083,92.2089 49.5417,92.2089 48.5,93.5C 46.5266,92.5133 44.5266,91.5133 42.5,90.5C 41.479,91.0016 41.3123,91.6683 42,92.5C 43.995,94.747 46.495,95.747 49.5,95.5C 52.0961,96.2653 54.7628,96.5987 57.5,96.5C 57.7471,99.9387 57.4137,103.272 56.5,106.5C 55.5178,105.859 54.5178,105.193 53.5,104.5C 52.8933,104.624 52.56,104.957 52.5,105.5C 51.7784,105.082 51.2784,104.416 51,103.5C 51.1573,107.318 52.1573,110.985 54,114.5C 55.6033,114.871 57.1033,115.205 58.5,115.5C 57.5206,118.625 57.1872,121.958 57.5,125.5C 60.8499,125.335 64.1832,125.502 67.5,126C 67.3842,127.268 67.0509,128.602 66.5,130C 67.3805,130.708 68.0472,131.542 68.5,132.5C 67.9569,132.56 67.6236,132.893 67.5,133.5C 68.9294,135.331 69.4294,137.331 69,139.5C 67.8362,137.351 66.6695,135.185 65.5,133C 63.0474,130.647 61.3807,131.147 60.5,134.5C 58.4902,132.747 56.1569,131.747 53.5,131.5C 53.6633,129.143 53.4966,126.81 53,124.5C 50.9575,122.288 48.7908,120.288 46.5,118.5C 48.6336,118.611 50.9669,118.278 53.5,117.5C 51.432,114.843 50.0987,111.843 49.5,108.5C 48.1991,110.473 46.1991,112.473 43.5,114.5C 42.6816,111.893 42.1816,109.226 42,106.5C 40.6485,108.594 40.1485,110.927 40.5,113.5C 39.325,113.281 38.325,113.614 37.5,114.5C 39.316,116.817 41.316,118.984 43.5,121C 42.2285,123.261 40.5618,123.761 38.5,122.5C 37.679,118.168 35.3457,115.001 31.5,113C 32.5171,111.951 32.6838,110.784 32,109.5C 30.647,108.315 29.4803,106.981 28.5,105.5C 30.8263,99.4763 33.4929,99.143 36.5,104.5C 34.8164,105.854 34.3164,107.521 35,109.5C 35.7096,110.973 36.8762,111.64 38.5,111.5C 40.1143,103.203 36.781,98.7027 28.5,98C 27.5293,91.4365 30.5293,88.1032 37.5,88C 38.2524,87.3292 38.5858,86.4959 38.5,85.5 Z"/></g>
<g><path style="opacity:1" fill="#1b1b1b" d="M 38.5,92.5 C 40.9052,93.3981 42.9052,94.8981 44.5,97C 43.5,97.3333 42.5,97.6667 41.5,98C 42.3802,99.3561 42.7135,100.856 42.5,102.5C 39.5611,102.082 37.2278,100.582 35.5,98C 36.4491,97.3828 37.2825,97.5494 38,98.5C 38.5,97.3333 39.3333,96.5 40.5,96C 39.1772,95.1841 38.5106,94.0174 38.5,92.5 Z"/></g>
<g><path style="opacity:1" fill="#4e4e4e" d="M 44.5,90.5 C 46.0894,89.3789 47.7561,89.5456 49.5,91C 47.8034,91.3845 46.1368,91.2178 44.5,90.5 Z"/></g>
<g><path style="opacity:1" fill="#171717" d="M 52.5,105.5 C 52.56,104.957 52.8933,104.624 53.5,104.5C 54.5178,105.193 55.5178,105.859 56.5,106.5C 57.8231,108.471 59.1565,110.471 60.5,112.5C 60.0576,113.739 59.3909,114.739 58.5,115.5C 57.1033,115.205 55.6033,114.871 54,114.5C 52.1573,110.985 51.1573,107.318 51,103.5C 51.2784,104.416 51.7784,105.082 52.5,105.5 Z"/></g>
<g><path style="opacity:1" fill="#bbbbbb" d="M 52.5,105.5 C 54.1747,107.179 55.008,109.179 55,111.5C 53.3375,109.842 52.5041,107.842 52.5,105.5 Z"/></g>
<g><path style="opacity:1" fill="#d7d7d7" d="M 15.5,102.5 C 18.9477,105.679 20.281,109.512 19.5,114C 21.7583,117.992 23.2583,122.159 24,126.5C 20.1004,120.471 16.7671,114.137 14,107.5C 13.619,103.723 14.2856,103.723 16,107.5C 16.3845,105.803 16.2178,104.137 15.5,102.5 Z"/></g>
<g><path style="opacity:1" fill="#e7e7e7" d="M 53.5,131.5 C 53.7031,133.044 54.3698,134.378 55.5,135.5C 54.277,136.614 52.9437,136.781 51.5,136C 48.1667,134.333 44.8333,132.667 41.5,131C 39.5494,129.266 38.5494,127.099 38.5,124.5C 41.8333,125.5 45.1667,126.5 48.5,127.5C 48.5792,126.07 48.2458,124.736 47.5,123.5C 48.0016,122.479 48.6683,122.312 49.5,123C 50.2638,125.069 50.7638,127.236 51,129.5C 51.4169,130.756 52.2502,131.423 53.5,131.5 Z"/></g>
<g><path style="opacity:1" fill="#444444" d="M 83.5,130.5 C 85.3769,131.659 85.8769,133.326 85,135.5C 83.7308,134.095 83.2308,132.429 83.5,130.5 Z"/></g>
<g><path style="opacity:1" fill="#a7a7a7" d="M 64.5,138.5 C 66.9828,138.73 67.4828,139.397 66,140.5C 64.9701,140.164 64.4701,139.497 64.5,138.5 Z"/></g>
<g><path style="opacity:1" fill="#afafaf" d="M 43.5,143.5 C 44.4971,142.287 45.4971,142.454 46.5,144C 45.4232,144.47 44.4232,144.303 43.5,143.5 Z"/></g>
<g><path style="opacity:1" fill="#e7e7e7" d="M 52.5,139.5 C 55.7411,139.878 58.7411,140.878 61.5,142.5C 59.1991,143.668 57.8658,145.168 57.5,147C 61.8054,150.332 64.6387,154.498 66,159.5C 61.2488,156.541 56.4155,153.707 51.5,151C 52.1667,150.667 52.8333,150.333 53.5,150C 51.7665,147.734 50.0998,145.568 48.5,143.5C 49.8814,142.119 51.2147,140.785 52.5,139.5 Z"/></g>
<g><path style="opacity:1" fill="#5a5a5a" d="M 93.5,149.5 C 95.0847,150.002 95.5847,151.002 95,152.5C 93.9614,151.756 93.4614,150.756 93.5,149.5 Z"/></g>
<g><path style="opacity:1" fill="#bdbdbd" d="M 69.5,161.5 C 71.0894,160.379 72.7561,160.546 74.5,162C 72.735,162.64 71.0683,162.473 69.5,161.5 Z"/></g>
<g><path style="opacity:1" fill="#121212" d="M 99.5,158.5 C 101.982,159.804 103.149,161.804 103,164.5C 101.053,162.937 99.886,160.937 99.5,158.5 Z"/></g>
<g><path style="opacity:1" fill="#cbcbcb" d="M 83.5,167.5 C 82.5707,166.685 81.5707,165.852 80.5,165C 81.1667,164.833 81.8333,164.667 82.5,164.5C 84.6255,165.786 86.9589,166.619 89.5,167C 87.5273,167.495 85.5273,167.662 83.5,167.5 Z"/></g>
<g><path style="opacity:1" fill="#e6e6e6" d="M 58.5,163.5 C 63.8838,163.356 68.8838,164.69 73.5,167.5C 73.2907,168.086 72.9574,168.586 72.5,169C 68.2616,169.823 64.2616,169.156 60.5,167C 59.1772,166.184 58.5106,165.017 58.5,163.5 Z"/></g>
<g><path style="opacity:1" fill="#c6c6c6" d="M 83.5,167.5 C 83.6107,168.117 83.944,168.617 84.5,169C 80.3137,170.248 76.9804,169.081 74.5,165.5C 74.8333,165.167 75.1667,164.833 75.5,164.5C 77.8157,166.494 80.4824,167.494 83.5,167.5 Z"/></g>
<g><path style="opacity:1" fill="#afafaf" d="M 81.5,172.5 C 82.7082,171.218 84.0416,171.218 85.5,172.5C 84.1916,173.626 82.8583,173.626 81.5,172.5 Z"/></g>
<g><path style="opacity:1" fill="#f6f6f6" d="M -0.5,70.5 C 5.01131,82.1836 8.84464,94.5169 11,107.5C 19.0929,132.693 31.5929,155.36 48.5,175.5C 47.612,178.054 47.2786,180.721 47.5,183.5C 44.5,183.5 41.5,183.5 38.5,183.5C 38.5,186.833 38.5,190.167 38.5,193.5C 35.1667,193.5 31.8333,193.5 28.5,193.5C 28.5,196.5 28.5,199.5 28.5,202.5C 25.5,202.5 22.5,202.5 19.5,202.5C 19.5,199.5 19.5,196.5 19.5,193.5C 16.1667,193.5 12.8333,193.5 9.5,193.5C 9.5,196.833 9.5,200.167 9.5,203.5C 12.5,203.5 15.5,203.5 18.5,203.5C 18.5,206.5 18.5,209.5 18.5,212.5C 15.5,212.5 12.5,212.5 9.5,212.5C 9.5,215.833 9.5,219.167 9.5,222.5C 13.0122,221.945 16.0122,222.612 18.5,224.5C 12.1667,224.5 5.83333,224.5 -0.5,224.5C -0.5,173.167 -0.5,121.833 -0.5,70.5 Z"/></g>
<g><path style="opacity:1" fill="#f5f5f5" d="M 48.5,175.5 C 59.5984,185.761 71.9317,194.261 85.5,201C 121.663,214.042 158.329,215.708 195.5,206C 198.76,205.216 201.927,205.383 205,206.5C 210.501,203.666 216.335,201.833 222.5,201C 223.066,200.005 223.733,199.172 224.5,198.5C 224.5,207.167 224.5,215.833 224.5,224.5C 155.833,224.5 87.1667,224.5 18.5,224.5C 16.0122,222.612 13.0122,221.945 9.5,222.5C 9.5,219.167 9.5,215.833 9.5,212.5C 12.5,212.5 15.5,212.5 18.5,212.5C 18.5,209.5 18.5,206.5 18.5,203.5C 15.5,203.5 12.5,203.5 9.5,203.5C 9.5,200.167 9.5,196.833 9.5,193.5C 12.8333,193.5 16.1667,193.5 19.5,193.5C 19.5,196.5 19.5,199.5 19.5,202.5C 22.5,202.5 25.5,202.5 28.5,202.5C 28.5,199.5 28.5,196.5 28.5,193.5C 31.8333,193.5 35.1667,193.5 38.5,193.5C 38.5,190.167 38.5,186.833 38.5,183.5C 41.5,183.5 44.5,183.5 47.5,183.5C 47.2786,180.721 47.612,178.054 48.5,175.5 Z"/></g>
<g><path style="opacity:1" fill="#e5e5e5" d="M 20.5,125.5 C 21.4584,125.953 22.2917,126.619 23,127.5C 27.1618,137.159 32.8285,145.825 40,153.5C 41.1965,156.089 42.1965,158.756 43,161.5C 44.3189,163.487 46.1523,164.654 48.5,165C 49.4539,168.792 51.7872,170.958 55.5,171.5C 55.33,172.822 55.6634,173.989 56.5,175C 60.1375,177.289 63.6375,179.789 67,182.5C 67.1667,182.833 67.3333,183.167 67.5,183.5C 65.9255,184.631 64.2588,184.798 62.5,184C 57.2862,178.486 51.7862,173.319 46,168.5C 39.3333,158.5 32.6667,148.5 26,138.5C 23.6028,134.376 21.7694,130.043 20.5,125.5 Z"/></g>
<g><path style="opacity:1" fill="#b3b3b3" d="M 80.5,177.5 C 80.7352,176.903 81.2352,176.57 82,176.5C 83.8928,177.196 85.7262,178.03 87.5,179C 84.9348,179.609 82.6015,179.109 80.5,177.5 Z"/></g>
<g><path style="opacity:1" fill="#838383" d="M 85.5,182.5 C 87.9828,182.73 88.4828,183.397 87,184.5C 85.9701,184.164 85.4701,183.497 85.5,182.5 Z"/></g>
<g><path style="opacity:1" fill="#9a9a9a" d="M 75.5,182.5 C 76.3764,182.369 77.0431,182.702 77.5,183.5C 75.1916,184.873 74.5249,184.54 75.5,182.5 Z"/></g>
<g><path style="opacity:1" fill="#b1b1b1" d="M 90.5,185.5 C 91.3864,184.224 92.3864,184.224 93.5,185.5C 92.5754,186.562 91.5754,186.562 90.5,185.5 Z"/></g>
<g><path style="opacity:1" fill="#aaaaaa" d="M 103.5,185.5 C 104.675,185.281 105.675,185.614 106.5,186.5C 104.948,187.798 103.948,187.465 103.5,185.5 Z"/></g>
<g><path style="opacity:1" fill="#8b8b8b" d="M 84.5,190.5 C 86.337,190.639 86.6704,191.306 85.5,192.5C 84.7025,192.043 84.3691,191.376 84.5,190.5 Z"/></g>
<g><path style="opacity:1" fill="#e3e3e3" d="M 132.5,193.5 C 133.833,193.5 135.167,193.5 136.5,193.5C 136.5,195.167 136.5,196.833 136.5,198.5C 134.027,197.691 131.694,197.358 129.5,197.5C 130.524,196.148 131.524,194.815 132.5,193.5 Z"/></g>
<g><path style="opacity:1" fill="#cdcdcd" d="M 138.5,195.5 C 142.29,195.008 142.956,195.841 140.5,198C 141.711,198.893 141.711,199.726 140.5,200.5C 139.05,199.15 138.383,197.484 138.5,195.5 Z"/></g>
<g><path style="opacity:1" fill="#dedede" d="M 182.5,195.5 C 184.5,196.167 186.5,196.833 188.5,197.5C 181.883,198.477 175.217,198.311 168.5,197C 169.818,195.092 171.652,194.258 174,194.5C 176.817,195.031 179.65,195.364 182.5,195.5 Z"/></g>
<g><path style="opacity:1" fill="#969696" d="M 211.5,195.5 C 213.924,195.192 216.257,195.526 218.5,196.5C 215.216,197.657 211.882,197.824 208.5,197C 209.737,196.768 210.737,196.268 211.5,195.5 Z"/></g>
<g><path style="opacity:1" fill="#5b5b5b" d="M 182.5,195.5 C 184.924,195.192 187.257,195.526 189.5,196.5C 189.376,197.107 189.043,197.44 188.5,197.5C 186.5,196.833 184.5,196.167 182.5,195.5 Z"/></g>
<g><path style="opacity:1" fill="#676767" d="M 145.5,197.5 C 146.452,198.452 147.452,199.452 148.5,200.5C 148.167,201.5 147.5,202.167 146.5,202.5C 145.5,201.5 144.5,200.5 143.5,199.5C 144.243,198.818 144.909,198.151 145.5,197.5 Z"/></g>
<g><path style="opacity:1" fill="#bbbbbb" d="M 98.5,200.5 C 96.9731,200.427 95.9731,201.094 95.5,202.5C 88.3168,200.385 81.6501,197.219 75.5,193C 77.3008,192.683 77.6341,192.016 76.5,191C 82.6689,192.508 88.5022,195.008 94,198.5C 94.3076,197.692 94.8076,197.025 95.5,196.5C 96.3886,198.007 97.3886,199.34 98.5,200.5 Z"/></g>
<g><path style="opacity:1" fill="#d1d1d1" d="M 98.5,200.5 C 100.117,201.038 101.784,201.371 103.5,201.5C 106.088,203.625 109.088,204.958 112.5,205.5C 120.799,207.225 129.132,207.559 137.5,206.5C 144.471,207.262 151.471,207.762 158.5,208C 158.833,208.333 159.167,208.667 159.5,209C 137.687,211.366 116.353,209.199 95.5,202.5C 95.9731,201.094 96.9731,200.427 98.5,200.5 Z"/></g>
<g><path style="opacity:1" fill="#b2b2b2" d="M 153.5,199.5 C 154.376,199.369 155.043,199.702 155.5,200.5C 151.75,203.303 151.084,202.97 153.5,199.5 Z"/></g>
<g><path style="opacity:1" fill="#d6d6d6" d="M 116.5,202.5 C 115.551,203.152 114.385,203.486 113,203.5C 109.8,202.932 106.633,202.265 103.5,201.5C 102.15,200.35 102.316,199.683 104,199.5C 108.123,200.739 112.29,201.739 116.5,202.5 Z"/></g>
<g><path style="opacity:1" fill="#4a4a4a" d="M 103.5,201.5 C 106.633,202.265 109.8,202.932 113,203.5C 114.385,203.486 115.551,203.152 116.5,202.5C 117.043,202.56 117.376,202.893 117.5,203.5C 115.709,204.17 114.042,204.837 112.5,205.5C 109.088,204.958 106.088,203.625 103.5,201.5 Z"/></g>
</svg>
